<?xml version="1.0" encoding="UTF-8" standalone="no"?>
<!-- Created with Inkscape (http://www.inkscape.org/) -->

<svg
   version="1.1"
   id="svg1"
   width="1024"
   height="1024"
   viewBox="0 0 1024 1024"
   sodipodi:docname="logo_M.svg"
   inkscape:version="1.4.2 (f4327f4, 2025-05-13)"
   xmlns:inkscape="http://www.inkscape.org/namespaces/inkscape"
   xmlns:sodipodi="http://sodipodi.sourceforge.net/DTD/sodipodi-0.dtd"
   xmlns="http://www.w3.org/2000/svg"
   xmlns:svg="http://www.w3.org/2000/svg">
  <defs
     id="defs1" />
  <sodipodi:namedview
     id="namedview1"
     pagecolor="#ffffff"
     bordercolor="#000000"
     borderopacity="0.25"
     inkscape:showpageshadow="2"
     inkscape:pageopacity="0.0"
     inkscape:pagecheckerboard="0"
     inkscape:deskcolor="#d1d1d1"
     inkscape:zoom="0.8310547"
     inkscape:cx="532.45593"
     inkscape:cy="580.58754"
     inkscape:window-width="1920"
     inkscape:window-height="1111"
     inkscape:window-x="-9"
     inkscape:window-y="-9"
     inkscape:window-maximized="1"
     inkscape:current-layer="g1"
     showgrid="true">
    <inkscape:grid
       id="grid1"
       units="px"
       originx="0"
       originy="0"
       spacingx="1"
       spacingy="1"
       empcolor="#0099e5"
       empopacity="0.30196078"
       color="#0099e5"
       opacity="0.14901961"
       empspacing="5"
       enabled="true"
       visible="true" />
  </sodipodi:namedview>
  <g
     id="g1707"
     inkscape:highlight-color="#ff0000"
     inkscape:label="TomoDesign"
     transform="matrix(1.0872425,0,0,1.0872425,-58.876074,-56.400074)"
     style="stroke-width:0.919758">
    <circle
       style="opacity:1;fill:#ff0000;stroke-width:0;stroke-linecap:round;stroke-linejoin:round;stroke-miterlimit:0;paint-order:markers fill stroke"
       id="path1745"
       cx="241.35413"
       cy="499.8728"
       r="155.4648"
       inkscape:label="日の丸" />
    <path
       style="display:inline;fill:#000000;fill-opacity:1;stroke-width:0.919758"
       d="m 301.86103,725.24341 c -1.45144,-0.95888 -3.85369,-2.9593 -5.33834,-4.44538 -3.30658,-3.30978 -9.81107,-4.51802 -15.03722,-2.79323 -5.63308,1.85908 -9.33853,0.56645 -15.48079,-5.40041 -6.30226,-6.1223 -9.8257,-7.58657 -18.4039,-7.64828 -3.35543,-0.0241 -7.84501,-0.66562 -9.97685,-1.4255 -3.72733,-1.3286 -4.12383,-1.25017 -10.33305,2.04389 -9.02556,4.78816 -13.14742,4.67286 -18.22753,-0.50987 -4.53042,-4.62193 -8.27027,-5.59674 -17.62747,-4.59467 -8.66883,0.92836 -10.75739,-0.42061 -12.99427,-8.39282 -1.10847,-3.95057 -2.65812,-6.83046 -4.61235,-8.57169 -2.40875,-2.1462 -2.88732,-3.28354 -2.63614,-6.26494 0.24149,-2.86655 0.9761,-4.03203 3.44772,-5.4699 3.53917,-2.05894 23.24745,-6.27327 33.85916,-7.24029 3.85,-0.35085 9.1375,-1.10858 11.75,-1.68385 3.95116,-0.87005 4.75,-1.42475 4.75,-3.29833 0,-4.84547 -4.13012,-8.67343 -15.59495,-14.45403 -18.44813,-9.3016 -27.59201,-17.8579 -34.83244,-32.59411 -5.18504,-10.55293 -6.90581,-18.29052 -6.89413,-31 0.0179,-19.51978 5.3969,-40.97102 14.91977,-59.5 2.68537,-5.225 5.01314,-9.76646 5.17283,-10.09213 0.15969,-0.32567 -6.81885,-0.87201 -15.50785,-1.21409 -26.07881,-1.02669 -46.12501,-4.82117 -54.59173,-10.33349 -6.94267,-4.52007 -9.63721,-14.62387 -5.64587,-21.17047 3.27604,-5.37333 7.58932,-6.64122 34.28979,-10.07951 8.14849,-1.0493 14.9649,-2.06588 15.14759,-2.25907 0.18269,-0.19318 -0.11394,-3.05124 -0.65919,-6.35124 -1.48541,-8.99008 -0.33905,-29.53654 2.17594,-39 3.13142,-11.78299 9.85529,-24.91091 16.5204,-32.255 l 5.6767,-6.25501 -1.62844,-6.24499 c -0.89564,-3.43475 -1.88373,-10.07 -2.19575,-14.745 -0.47604,-7.13247 -0.22906,-9.3921 1.53512,-14.0449 4.74396,-12.51161 18.44418,-22.62026 36.74949,-27.11547 13.59256,-3.3379 35.45618,-3.12515 52.74139,0.51321 38.34393,8.07102 73.06308,29.57513 84.22997,52.1698 3.60466,7.29355 3.89136,8.50369 3.89136,16.4255 0,7.57663 -0.3324,9.15179 -2.91482,13.81268 -1.60315,2.89345 -5.34945,7.56339 -8.32511,10.37765 l -5.41028,5.11682 2.31866,8.12236 c 1.92096,6.72917 2.30392,10.35216 2.23274,21.12235 -0.0787,11.91021 -0.35974,13.8129 -3.35226,22.69697 -3.38856,10.05982 -11.39089,23.74826 -18.45348,31.5657 -2.022,2.23811 -3.32066,4.27216 -2.88591,4.52011 0.43476,0.24796 4.55035,1.02315 9.14576,1.72265 7.04588,1.07251 8.4915,1.05421 9.22434,-0.1168 1.96588,-3.14126 26.27608,-71.66355 30.4714,-85.88863 2.49395,-8.45621 4.04042,-17.0245 5.84287,-32.37258 1.34818,-11.47991 2.82358,-21.20653 3.27867,-21.61471 10.80266,-9.68922 61.84719,-50.08372 63.51554,-50.26354 L 447.5,318.5 l 0.26,45.62667 0.26001,45.62668 -10.29398,10.87332 C 427.50479,431.42316 422.63111,437.74343 420.08795,443.5 416.49301,451.63735 386,524.01998 386,524.41611 c 0,0.1383 2.45638,1.94323 5.45862,4.01095 10.52909,7.25166 17.23035,16.81545 21.09332,30.10362 1.36115,4.68217 1.60832,8.25001 1.17753,16.99699 -1.15086,23.36775 -11.11214,40.57913 -28.5927,49.40329 -4.95066,2.49908 -16.17628,6.01484 -18.73859,5.86874 -0.30941,-0.0176 -6.34266,4.05707 -13.40722,9.05492 -15.47331,10.94666 -18.22632,14.17215 -18.77146,21.99315 -0.53636,7.69513 0.81759,10.57823 6.65424,14.16956 6.54606,4.02783 8.39781,7.03816 8.33924,13.55681 -0.0799,8.88989 -2.89391,12.33766 -20.71298,25.37764 -17.42491,12.75154 -20.88943,14.09001 -26.63897,10.29163 z"
       id="path1710"
       inkscape:label="背景黒"
       sodipodi:nodetypes="ssssssssssssssssssssssssssssscssssssssscssssssssssscccssssssssssssss" />
    <g
       id="g1745"
       style="display:inline;fill:#ffffff;stroke-width:0.919758"
       inkscape:label="カモ">
      <g
         id="g2"
         inkscape:label="体の白色"
         style="fill:#ffffff;stroke:none;stroke-width:0.919758">
        <path
           style="display:inline;fill:#ffffff;fill-opacity:1;stroke:none;stroke-width:0.919758"
           d="m 415.12217,427.76439 c 1.25338,-1.79541 6.68863,-7.83001 12.07834,-13.41022 L 437,404.20834 436.91239,380.35417 C 436.86421,367.23438 436.50375,354.25 436.11137,351.5 l -0.71342,-5 -1.77071,4 c -0.9739,2.2 -4.87277,11.425 -8.66417,20.5 0,0 -8.79196,20.84662 -8.42461,22.84703 0.40312,2.19522 1.68338,2.56738 2.29154,5.70616 0.60815,3.13878 -0.13623,6.2687 -1.4987,8.36293 -2.5113,3.86009 -4.7055,5.15499 -8.44644,5.05208 -10.00486,-0.27522 -13.02139,-13.25578 -3.58631,-19.00868 1.7608,-1.07363 4.14172,-1.95373 5.29093,-1.95578 2.35466,-0.004 1.85413,0.92066 11.6374,-21.50374 8.98661,-20.59838 10.91132,-25.50119 10.00853,-25.49475 -0.40448,0.003 -8.43524,5.96538 -17.84614,13.25 -9.41091,7.28461 -18.30851,14.14475 -19.77246,15.24475 -2.54292,1.91073 -2.72925,2.6918 -4.17478,17.5 -0.83218,8.525 -2.6547,20.10237 -4.05005,25.72748 -1.39534,5.62511 -2.39186,11.18495 -2.21448,12.3552 0.24867,1.64063 2.9507,3.32836 11.80293,7.37231 l 11.48043,5.24458 2.69123,-5.3354 c 1.48018,-2.93446 3.71671,-6.80437 4.97008,-8.59978 z"
           id="path1721"
           inkscape:label="ペン先"
           sodipodi:nodetypes="sscsscssszssscscsssssscss" />
        <path
           style="display:inline;fill:#ffffff;fill-opacity:1;stroke:none;stroke-width:0.919758"
           d="m 399.20098,464.25662 c 1.34775,-2.88931 3.074,-5.64526 3.074,-5.64526 0,0 -9.14804,-2.3528 -12.86478,-4.02391 -3.71675,-1.67111 -9.27344,-4.91016 -11.72571,-7.01592 -0.98577,2.7074 -1.93805,4.38251 -2.70155,6.08959 -0.5249,1.17359 -2.00768,3.50852 -2.00768,3.50852 0,0 10.03428,2.91887 14.09641,4.80622 4.06213,1.88736 8.12774,5.14033 10.46398,6.80256 0.60653,-1.27081 0.31758,-1.6325 1.66533,-4.5218 z"
           id="path1720"
           inkscape:label="ペン筋"
           sodipodi:nodetypes="zczcsczcz" />
        <path
           style="display:inline;fill:#ffffff;fill-opacity:1;stroke:none;stroke-width:0.919758"
           d="m 206.19296,498.89754 c 15.38368,-1.95426 25.24069,-5.51673 27.72717,-10.02102 1.2903,-2.3374 1.24758,-3.14885 -0.39174,-7.44135 -2.04111,-5.34458 -8.36028,-12.77976 -12.82284,-15.08743 -7.88163,-4.07575 -17.76158,-3.36769 -31.00514,2.22203 -14.44628,6.09736 -28.87664,9.28697 -53.89651,11.91301 -6.98286,0.73291 -13.17036,1.62567 -13.75,1.98391 -0.57965,0.35824 -1.0539,2.16914 -1.0539,4.02423 0,2.61115 0.68196,3.85849 3.01962,5.52305 4.99782,3.55876 22.64233,6.4813 50.48038,8.36129 6.68358,0.45136 22.20392,-0.27229 31.69296,-1.47772 z"
           id="path1719"
           inkscape:label="くちばし" />
        <path
           style="display:inline;fill:#ffffff;fill-opacity:1;stroke:none;stroke-width:0.919758"
           d="m 379.28203,616.2327 c 4.01376,-1.75945 7.5035,-4.39397 11.41106,-8.61461 14.10048,-15.2302 17.36897,-37.82058 8.10381,-56.01013 -2.41064,-4.73262 -10.24323,-13.27028 -13.91749,-15.17032 l -2.68355,-1.38772 -3.9966,9.22504 c -4.97479,11.48291 -5.54519,13.39321 -4.23994,14.1999 1.14711,0.70895 1.38213,4.47175 0.43369,6.94335 -1.01547,2.64627 -3.57853,0.81438 -17.23742,-6.17546 -15.66643,-8.01719 -27.79256,-11.47725 -36.28896,-10.24023 -3.32725,0.48443 -5.62026,2.39683 -4.85298,9.5517 0.94853,8.84504 6.95192,16.9074 20.7742,23.85859 6.12328,3.07938 8.13853,6.25859 6.3941,10.08719 -1.41994,3.11643 -5.81083,2.84714 -10.4345,1.11782 -2.29022,-0.85657 -9.26967,-4.48191 -9.23616,-4.12731 0.67685,7.1623 4.64783,14.94044 9.96514,19.58242 5.54906,4.8443 14.62561,9.78454 27.24309,10.97631 7.21384,0.68137 11.49991,-0.72062 18.56251,-3.81654 z"
           id="path1718"
           inkscape:label="左手"
           sodipodi:nodetypes="sssscsssssssssssss" />
        <path
           style="display:inline;fill:#ffffff;fill-opacity:1;stroke:none;stroke-width:0.919758"
           d="m 340.97974,635.36651 9.96313,-6.6335 -6.06122,-2.8665 C 341.54797,624.28993 338.68831,623 338.52684,623 c -0.16147,0 -0.52105,0.7875 -0.79907,1.75 -0.27803,0.9625 -2.11915,5.2375 -4.09139,9.5 -1.97224,4.2625 -3.36851,7.75 -3.10283,7.75 0.26568,0 4.96647,-2.98507 10.44619,-6.63349 z"
           id="path1717"
           inkscape:label="腰" />
        <path
           style="display:inline;fill:#ffffff;fill-opacity:1;stroke:none;stroke-width:0.919758"
           d="m 294.62595,630.45343 c 3.9891,-10.42439 7.27637,-19.40343 7.30504,-19.95343 0.0287,-0.55 -2.94967,-2.575 -6.61854,-4.5 -11.87631,-6.23131 -24.56648,-21.25129 -26.77009,-31.68485 -0.52296,-2.47607 -0.21306,-3.64445 1.39249,-5.25 3.87128,-3.87128 6.12045,-2.49373 11.06009,6.77397 1.69566,3.1814 5.09608,8.08558 7.55647,10.89818 4.92601,5.63117 16.33287,13.78536 17.55215,12.54715 0.42486,-0.43145 2.36118,-4.50369 4.30293,-9.04942 l 3.53047,-8.26498 -3.00349,-4.73502 c -4.00541,-6.31456 -5.9338,-13.19552 -5.93192,-21.16653 0.003,-12.62004 4.71681,-17.14982 18.60518,-17.87877 l 8.27858,-0.43451 2.55735,-6.38813 C 335.8492,527.85362 337,524.13366 337,523.10053 c 0,-4.07207 -20.58585,-7.00304 -32.72592,-4.65945 -3.96888,0.76618 -4.2865,0.65645 -5.22195,-1.80396 -1.41377,-3.7185 -0.52376,-5.21716 5.45516,-9.18574 7.19861,-4.77817 19.42025,-17.78498 23.91081,-25.44694 2.03455,-3.47143 4.88413,-9.73006 6.33241,-13.90807 2.32004,-6.69285 2.63312,-9.14261 2.63224,-20.59637 -9.3e-4,-12.12213 -0.22757,-13.66614 -3.35616,-22.86461 -3.89514,-11.45218 -3.46343,-11.07329 -21.13626,-18.55077 -28.9787,-12.26107 -59.70956,-18.84277 -92.43214,-19.79638 -22.20877,-0.64722 -22.14681,-0.66468 -31.56282,8.89866 -9.90177,10.05669 -16.60053,26.01328 -18.41992,43.87661 -0.55222,5.4218 0.87915,24.62443 1.91254,25.65781 0.16241,0.16242 5.87906,-2.04763 12.70366,-4.91122 12.0938,-5.07454 12.66185,-5.20784 22.40835,-5.25831 8.96485,-0.0464 10.64411,0.24573 16.22237,2.82238 7.47685,3.45361 15.27342,11.27099 18.80368,18.85384 2.73311,5.87062 2.97637,8.42209 1.35857,14.24944 -2.52487,9.09461 -11.6628,14.01064 -31.65506,17.02979 -5.09874,0.77 -9.66859,1.64606 -10.15522,1.94682 -1.65874,1.02515 -10.38987,16.75384 -14.17889,25.54256 -8.26165,19.16306 -12.0863,44.26515 -8.90638,58.45461 1.52951,6.825 4.75126,14.10307 9.15444,20.68027 14.50578,21.66787 51.46066,35.65994 93.29302,35.32314 l 5.93652,-0.0478 z"
           id="path1714"
           inkscape:label="体" />
        <path
           style="display:inline;fill:#ffffff;fill-opacity:1;stroke:none;stroke-width:0.919758"
           d="m 271.21858,681.45592 5.71858,-1.80136 2.9563,-8.81469 c 1.62596,-4.84808 2.6526,-9.00023 2.28142,-9.22699 -0.61719,-0.37706 -20.07622,-0.99633 -22.87957,-0.72813 -1.86,0.17795 -2.64879,6.65436 -1.40976,11.575 1.39409,5.53642 5.01451,11.79215 6.49646,11.22522 0.6149,-0.23523 3.69135,-1.2383 6.83657,-2.22905 z"
           id="path1713"
           inkscape:label="股下" />
        <path
           style="display:inline;fill:#ffffff;fill-opacity:1;stroke:none;stroke-width:0.919758"
           d="m 224.83232,695.00583 c 3.24068,-1.64679 10.34164,-4.41663 15.77991,-6.1552 5.43828,-1.73856 9.99457,-3.23549 10.12511,-3.3265 0.13054,-0.091 -0.69872,-2.82875 -1.8428,-6.08385 -1.62296,-4.61762 -2.0048,-7.72683 -1.73734,-14.14674 l 0.3428,-8.22836 -6,-1.30042 -6,-1.30041 -0.5,5.06307 c -0.60751,6.15175 -3.09464,10.20453 -7.32778,11.94062 -1.74472,0.71555 -10.59722,2.245 -19.67222,3.39877 -9.075,1.15378 -18.15895,2.56902 -20.18657,3.14498 -3.63967,1.03387 -3.66804,1.08179 -2.23004,3.7677 0.80109,1.49628 1.88641,3.95801 2.41182,5.47051 0.89255,2.56941 1.33452,2.75103 6.73004,2.76562 8.47887,0.0229 17.06345,2.31853 20.12708,5.38217 1.43122,1.43122 2.93648,2.60221 3.34503,2.60221 0.40855,0 3.39429,-1.34738 6.63496,-2.99417 z"
           id="path1712"
           inkscape:label="右足" />
        <path
           style="display:inline;fill:#ffffff;fill-opacity:1;stroke:none;stroke-width:0.919758"
           d="m 311.90772,713.91505 c 1.87424,-1.14262 8.50925,-5.89015 14.74445,-10.55009 14.94691,-11.1707 15.55396,-13.19462 6.06092,-20.20754 -2.97456,-2.19744 -6.15188,-5.56232 -7.06069,-7.47751 -1.85024,-3.89908 -2.24333,-14.99545 -0.67715,-19.11481 0.53639,-1.41081 0.64889,-2.56197 0.25,-2.55814 -0.39889,0.004 -3.72645,6.30382 -7.39458,14 -5.74578,12.05533 -6.99207,13.99517 -9,14.00839 -4.918,0.0324 -45.92987,11.95099 -48.17273,13.99963 -0.46314,0.42303 0.77376,1.30242 2.74866,1.9542 1.9749,0.65177 5.72787,3.17534 8.33992,5.60793 2.61205,2.43259 4.97515,4.44583 5.25133,4.47386 0.27618,0.028 4.55215,0.15226 9.50215,0.27605 9.19965,0.23006 15.22094,2.22195 18.43934,6.09989 1.71567,2.06726 2.87784,1.98189 6.96838,-0.51186 z"
           id="path1711"
           inkscape:label="左足" />
      </g>
      <g
         id="g1744"
         inkscape:label="目"
         style="fill:#000000;stroke-width:0.919758">
        <path
           style="display:inline;fill:#000000;fill-opacity:1;stroke-width:0.919758"
           d="M 255.52404,457.61495 C 247.0359,449.12681 252.45172,432 263.62398,432 c 3.44962,0 7.9117,4.7114 8.7638,9.25351 2.27041,12.10234 -9.60304,23.62214 -16.86374,16.36144 z"
           id="path1715"
           inkscape:label="左目" />
        <path
           style="display:inline;fill:#000000;fill-opacity:1;stroke-width:0.919758"
           d="m 180.67336,450.15886 c -6.95428,-4.2196 -5.72037,-18.90217 1.87953,-22.36491 8.47209,-3.86015 13.85607,11.81285 6.8984,20.08157 -3.07479,3.65418 -5.48528,4.28121 -8.77793,2.28334 z"
           id="path1716"
           inkscape:label="右目" />
      </g>
    </g>
    <g
       id="g1"
       inkscape:label="文字"
       style="stroke-width:0.919758">
      <path
         style="font-weight:600;font-size:61.4697px;line-height:0.85;font-family:Sans;-inkscape-font-specification:'Sans, Semi-Bold';letter-spacing:0px;word-spacing:0px;stroke-width:0;stroke-linecap:round;stroke-linejoin:round;stroke-miterlimit:0;paint-order:markers fill stroke"
         d="m 544.4412,655.67606 -11.18749,43.88937 h -10.57278 l -5.96256,-23.05114 q -0.18441,-0.67616 -0.49176,-2.0285 -0.24588,-1.35233 -0.6147,-2.95054 -0.30735,-1.59822 -0.55323,-3.01202 -0.24588,-1.47527 -0.36881,-2.27438 -0.0615,0.79911 -0.36882,2.27438 -0.24588,1.4138 -0.55323,3.01202 -0.30735,1.53674 -0.6147,2.95054 -0.30735,1.35234 -0.49176,2.08997 l -5.90109,22.98967 H 496.18749 L 485,655.67606 h 9.15899 l 5.59374,23.97319 q 0.36882,1.4138 0.7991,3.56524 0.43029,2.15144 0.79911,4.30288 0.36882,2.15144 0.55323,3.62671 0.18441,-1.53674 0.55322,-3.62671 0.36882,-2.15144 0.73764,-4.11847 0.43029,-2.0285 0.73764,-3.13496 l 6.39285,-24.58788 h 8.79016 l 6.39285,24.58788 q 0.30735,1.04499 0.67617,3.07349 0.43029,2.0285 0.79911,4.17994 0.36881,2.15144 0.55322,3.62671 0.18441,-1.53674 0.55323,-3.62671 0.36882,-2.15144 0.79911,-4.30288 0.49175,-2.15144 0.7991,-3.56524 l 5.59374,-23.97319 z m 44.56558,21.88322 q 0,6.82313 -2.27438,11.92512 -2.21291,5.04051 -6.82314,7.86812 -4.61022,2.82761 -11.80218,2.82761 -7.13048,0 -11.80218,-2.82761 -4.61023,-2.82761 -6.88461,-7.92959 -2.21291,-5.10199 -2.21291,-11.92512 0,-6.76167 2.21291,-11.80218 2.27438,-5.10199 6.88461,-7.86813 4.6717,-2.8276 11.86365,-2.8276 7.13049,0 11.74071,2.8276 4.6717,2.76614 6.88461,7.86813 2.21291,5.04051 2.21291,11.86365 z m -31.90278,0 q 0,6.8846 2.58173,10.81866 2.6432,3.8726 8.42135,3.8726 5.90109,0 8.42135,-3.8726 2.58173,-3.93406 2.58173,-10.81866 0,-6.88461 -2.58173,-10.81867 -2.52026,-3.93406 -8.35988,-3.93406 -5.83962,0 -8.48282,3.93406 -2.58173,3.93406 -2.58173,10.81867 z m 54.03189,-21.88322 q 17.15005,0 17.15005,12.7857 0,4.48729 -2.27438,7.3149 -2.27438,2.8276 -5.65521,4.42581 l 12.47835,19.36296 h -10.7572 l -9.77368,-16.8427 h -5.22493 v 16.8427 h -9.40486 v -43.88937 z m -0.18441,7.3149 h -3.87259 v 12.47835 h 3.87259 q 3.74966,0 5.77816,-1.53675 2.0285,-1.53674 2.0285,-5.04051 0,-2.95055 -1.90556,-4.42582 -1.8441,-1.47527 -5.9011,-1.47527 z m 62.63764,36.57447 h -10.57279 l -11.49483,-18.50238 -3.93406,2.82761 v 15.67477 h -9.28193 v -43.88937 h 9.28193 v 20.1006 q 0.92204,-1.29087 1.84409,-2.58173 0.92204,-1.29087 1.84409,-2.58173 l 11.86365,-14.93714 h 10.32691 l -15.30595,19.42443 z m 31.41098,-12.171 q 0,5.83962 -4.24141,9.34339 -4.17994,3.44231 -11.92512,3.44231 -6.94608,0 -12.41688,-2.6432 v -8.66723 q 3.13495,1.35234 6.45432,2.52026 3.38083,1.10645 6.70019,1.10645 3.44231,0 4.85611,-1.29086 1.47527,-1.35233 1.47527,-3.38083 0,-1.65968 -1.16792,-2.82761 -1.10646,-1.16792 -3.01202,-2.15144 -1.90556,-1.04498 -4.36435,-2.21291 -1.53674,-0.73763 -3.31936,-1.72115 -1.78262,-1.04498 -3.4423,-2.52026 -1.59822,-1.53674 -2.6432,-3.68818 -1.04499,-2.15144 -1.04499,-5.16345 0,-5.9011 3.99554,-9.15899 3.99553,-3.31936 10.88013,-3.31936 3.44231,0 6.51579,0.7991 3.13495,0.79911 6.51579,2.27438 l -3.01202,7.25343 q -3.01201,-1.2294 -5.40933,-1.90556 -2.39732,-0.67617 -4.91758,-0.67617 -2.64319,0 -4.057,1.22939 -1.4138,1.2294 -1.4138,3.19643 0,2.33585 2.08997,3.68818 2.08997,1.35233 6.20844,3.31936 3.38083,1.59822 5.71668,3.31937 2.39732,1.72115 3.68818,4.057 1.29087,2.33585 1.29087,5.77815 z"
         id="text8"
         aria-label="WORKS" />
      <path
         style="stroke-width:0;font-weight:900;font-size:150.929px;line-height:0.75;font-family:Figtree;-inkscape-font-specification:'Figtree, Heavy';letter-spacing:0px;word-spacing:0px;stroke-linecap:round;stroke-linejoin:round;stroke-miterlimit:0;paint-order:markers fill stroke"
         d="m 488.81984,619.79186 v -105.6503 h 35.31739 q 17.35683,0 30.63858,6.79181 13.43268,6.7918 20.97913,18.7152 7.54645,11.77246 7.54645,27.31814 0,15.39476 -7.54645,27.31815 -7.54645,11.92339 -20.97913,18.7152 -13.28175,6.7918 -30.63858,6.7918 z m 27.92186,-26.41257 h 7.39553 q 6.64087,0 12.22524,-1.96208 5.58438,-1.96207 9.65946,-5.43344 4.07508,-3.47137 6.33902,-8.3011 2.26393,-4.82972 2.26393,-10.71596 0,-5.88623 -2.26393,-10.71595 -2.26394,-4.82973 -6.33902,-8.3011 -4.07508,-3.47137 -9.65946,-5.43344 -5.58437,-1.96208 -12.22524,-1.96208 h -7.39553 z m 115.30983,28.22372 q -12.22525,0 -21.73378,-4.98065 -9.50853,-4.98066 -14.94197,-13.88547 -5.28252,-8.90481 -5.28252,-20.67728 0,-11.77246 5.28252,-20.67727 5.28251,-8.90481 14.64011,-13.88547 9.3576,-4.98065 21.58285,-4.98065 11.62153,0 20.37541,5.13158 8.90482,4.98066 13.88547,15.24383 5.13159,10.26317 5.13159,25.95979 h -52.82515 q 0.75464,5.58437 4.07508,8.90481 3.47137,3.16951 9.05574,3.16951 4.98066,0 8.60295,-2.26394 3.77323,-2.41486 4.6788,-5.88623 l 23.84679,7.39552 q -2.71673,7.84831 -8.75389,12.67804 -5.88623,4.6788 -13.28175,6.79181 -7.24459,1.96207 -14.33825,1.96207 z m -13.73454,-49.35378 h 25.05421 q -0.75464,-4.22601 -2.71672,-6.64088 -1.96208,-2.41486 -4.52787,-3.32043 -2.56579,-1.05651 -5.28252,-1.05651 -2.71672,0 -5.28251,1.05651 -2.56579,0.90557 -4.52787,3.32043 -1.96208,2.41487 -2.71672,6.64088 z m 89.50088,49.35378 q -7.54645,0 -14.03639,-2.113 -6.48995,-2.11301 -11.16875,-5.88623 -4.52787,-3.92416 -6.33902,-9.3576 l 21.58285,-8.45203 q 1.66022,4.07509 4.6788,5.28252 3.01858,1.0565 5.28251,1.0565 2.41487,0 3.92416,-1.0565 1.50929,-1.0565 1.50929,-3.01858 0,-2.11301 -2.11301,-3.47137 -2.113,-1.50929 -6.48994,-2.56579 l -6.18809,-1.50929 q -10.11225,-2.56579 -15.24383,-8.90481 -5.13159,-6.33902 -5.13159,-14.79104 0,-11.62154 8.45203,-17.96056 8.60295,-6.33901 23.24306,-6.33901 8.90481,0 14.94197,2.26393 6.18809,2.11301 10.11225,6.03716 3.92415,3.92416 6.03716,9.05574 l -20.97914,7.99924 q -1.0565,-3.01858 -3.62229,-4.37694 -2.41487,-1.35836 -6.03716,-1.35836 -2.56579,0 -4.07508,1.20743 -1.35837,1.20743 -1.35837,2.86765 0,1.81115 2.11301,3.16951 2.26394,1.20743 6.79181,2.41486 l 6.18808,1.50929 q 6.94274,1.66022 12.07432,5.13159 5.13159,3.32044 7.99924,8.30109 2.86765,4.98066 2.86765,11.47061 0,7.39552 -4.37694,12.67803 -4.37694,5.13159 -12.22525,7.99924 -7.84831,2.71672 -18.41334,2.71672 z m 47.08973,-1.81115 v -75.4645 h 27.16722 v 75.4645 z m 13.58361,-82.70909 q -6.03716,0 -10.56503,-4.52787 -4.52787,-4.52787 -4.52787,-10.56503 0,-6.18809 4.52787,-10.56503 4.52787,-4.52787 10.56503,-4.52787 6.18809,0 10.56503,4.52787 4.52787,4.37694 4.52787,10.56503 0,6.03716 -4.52787,10.56503 -4.37694,4.52787 -10.56503,4.52787 z m 65.95613,115.0079 q -9.81039,0 -17.05498,-1.0565 -7.09366,-1.05651 -12.07432,-3.16951 -4.98066,-1.96208 -8.60295,-4.82973 l 10.71596,-21.58285 q 2.41486,1.20744 5.58437,2.71673 3.32044,1.66021 8.15016,2.86765 4.82973,1.20743 11.9234,1.20743 4.67879,0 8.30109,-1.81115 3.6223,-1.81115 5.58437,-5.43344 2.11301,-3.6223 2.11301,-9.05574 v -6.64088 q -3.47137,5.13159 -9.05574,7.99924 -5.43344,2.86765 -12.52711,2.86765 -10.71596,0 -18.41334,-4.07508 -7.54645,-4.22602 -11.62153,-11.9234 -4.07508,-7.8483 -4.07508,-18.71519 0,-12.22525 4.07508,-20.8282 4.07508,-8.75389 11.62153,-13.43268 7.69738,-4.6788 18.41334,-4.6788 7.09367,0 12.52711,3.32043 5.58437,3.16951 9.05574,9.3576 v -10.86689 h 27.16722 v 66.40876 q 0,12.52711 -4.82973,21.88471 -4.6788,9.3576 -14.0364,14.33825 -9.20666,5.13159 -22.9412,5.13159 z m 1.35836,-58.40952 q 3.77322,0 6.33902,-1.66022 2.71672,-1.81115 4.07508,-4.82973 1.50929,-3.01858 1.50929,-6.7918 0,-4.07509 -1.50929,-7.09367 -1.50929,-3.01858 -4.22601,-4.6788 -2.5658,-1.66022 -6.33902,-1.66022 -3.6223,0 -6.33902,1.66022 -2.71672,1.66022 -4.22601,4.6788 -1.50929,3.01858 -1.66022,7.09367 0.15093,3.77322 1.66022,6.7918 1.50929,3.01858 4.22601,4.82973 2.86765,1.66022 6.48995,1.66022 z m 54.03264,26.11071 v -75.4645 h 25.65793 l 1.05651,9.20667 q 3.62229,-5.28251 8.90481,-8.15016 5.28251,-2.86765 11.62153,-2.86765 9.20667,0 15.24383,3.77322 6.03716,3.6223 8.90481,11.16875 3.01858,7.54645 3.01858,19.16798 v 43.16569 h -27.16722 v -38.63782 q 0,-4.37694 -1.0565,-7.09366 -0.90558,-2.86765 -2.86765,-4.37694 -1.81115,-1.50929 -4.6788,-1.66022 -5.7353,-0.30186 -8.60295,2.56579 -2.86766,2.86765 -2.86766,9.05574 v 40.14711 z"
         id="path2" />
      <path
         style="stroke-width:0;font-weight:900;font-size:150.929px;line-height:0.75;font-family:Figtree;-inkscape-font-specification:'Figtree, Heavy';letter-spacing:0px;word-spacing:0px;stroke-linecap:round;stroke-linejoin:round;stroke-miterlimit:0;paint-order:markers fill stroke"
         d="m 512.21383,495.65009 v -79.99238 h -29.88394 v -25.65793 h 87.53882 v 25.65793 H 540.1357 v 79.99238 z m 93.87794,1.81114 q -12.07432,0 -21.43192,-4.98065 -9.20667,-5.13159 -14.48919,-14.0364 -5.28251,-8.90481 -5.28251,-20.52634 0,-11.62154 5.13158,-20.52635 5.28252,-8.90481 14.48919,-13.88547 9.3576,-5.13158 21.28099,-5.13158 12.07432,0 21.28099,5.13158 9.35759,4.98066 14.48918,13.88547 5.28252,8.90481 5.28252,20.52635 0,11.62153 -5.28252,20.52634 -5.13159,8.90481 -14.33825,14.0364 -9.20667,4.98065 -21.13006,4.98065 z m 0,-25.05421 q 3.77322,0 6.64087,-1.81115 2.86765,-1.96208 4.52787,-5.13158 1.66022,-3.32044 1.66022,-7.54645 0,-4.22602 -1.66022,-7.39553 -1.66022,-3.32043 -4.6788,-5.13158 -2.86765,-1.96208 -6.7918,-1.96208 -3.77323,0 -6.79181,1.96208 -2.86765,1.81115 -4.52787,5.13158 -1.66022,3.16951 -1.66022,7.39553 0,4.22601 1.66022,7.54645 1.66022,3.1695 4.6788,5.13158 3.01858,1.81115 6.94274,1.81115 z m 50.56124,23.24307 v -75.4645 h 25.65793 l 1.0565,9.20666 q 3.6223,-5.43344 8.90482,-8.15016 5.28251,-2.86765 11.62153,-2.86765 9.3576,0 15.39476,3.77322 6.03716,3.6223 8.90481,11.31968 3.62229,-7.39552 9.50852,-11.16875 6.03716,-3.92415 13.43269,-3.92415 13.88546,0 20.52634,8.30109 6.64088,8.3011 6.64088,25.80886 v 43.1657 h -27.16722 v -38.63783 q 0,-4.37694 -1.05651,-7.09366 -0.90557,-2.86765 -2.86765,-4.37694 -1.81115,-1.50929 -4.6788,-1.66022 -5.7353,-0.30186 -8.60295,2.56579 -2.86765,2.86765 -2.86765,9.05574 v 40.14712 h -27.16722 v -38.63783 q 0,-4.37694 -1.0565,-7.09366 -0.90558,-2.86765 -2.86766,-4.37694 -1.81114,-1.50929 -4.67879,-1.66022 -5.73531,-0.30186 -8.60296,2.56579 -2.86765,2.86765 -2.86765,9.05574 v 40.14712 z m 171.90824,1.81114 q -12.07432,0 -21.43192,-4.98065 -9.20667,-5.13159 -14.48918,-14.0364 -5.28252,-8.90481 -5.28252,-20.52634 0,-11.62154 5.13159,-20.52635 5.28251,-8.90481 14.48918,-13.88547 9.3576,-5.13158 21.28099,-5.13158 12.07432,0 21.28099,5.13158 9.3576,4.98066 14.48918,13.88547 5.28252,8.90481 5.28252,20.52635 0,11.62153 -5.28252,20.52634 -5.13158,8.90481 -14.33825,14.0364 -9.20667,4.98065 -21.13006,4.98065 z m 0,-25.05421 q 3.77322,0 6.64087,-1.81115 2.86765,-1.96208 4.52787,-5.13158 1.66022,-3.32044 1.66022,-7.54645 0,-4.22602 -1.66022,-7.39553 -1.66022,-3.32043 -4.6788,-5.13158 -2.86765,-1.96208 -6.7918,-1.96208 -3.77323,0 -6.79181,1.96208 -2.86765,1.81115 -4.52787,5.13158 -1.66021,3.16951 -1.66021,7.39553 0,4.22601 1.66021,7.54645 1.66022,3.1695 4.6788,5.13158 3.01858,1.81115 6.94274,1.81115 z"
         id="path1" />
    </g>
  </g>
</svg>
