<?xml version="1.0" encoding="UTF-8" standalone="no"?>
<!-- Created with Inkscape (http://www.inkscape.org/) -->

<svg
   width="640"
   height="400"
   viewBox="0 0 169.33333 105.83333"
   version="1.1"
   id="svg1"
   xml:space="preserve"
   sodipodi:docname="logo.svg"
   inkscape:version="1.4.2 (f4327f4, 2025-05-13)"
   xmlns:inkscape="http://www.inkscape.org/namespaces/inkscape"
   xmlns:sodipodi="http://sodipodi.sourceforge.net/DTD/sodipodi-0.dtd"
   xmlns="http://www.w3.org/2000/svg"
   xmlns:svg="http://www.w3.org/2000/svg"><sodipodi:namedview
     id="namedview1"
     pagecolor="#ffffff"
     bordercolor="#000000"
     borderopacity="0.25"
     inkscape:showpageshadow="2"
     inkscape:pageopacity="0.0"
     inkscape:pagecheckerboard="0"
     inkscape:deskcolor="#d1d1d1"
     showgrid="true"
     inkscape:zoom="0.531875"
     inkscape:cx="760.51704"
     inkscape:cy="346.88602"
     inkscape:window-width="1920"
     inkscape:window-height="1111"
     inkscape:window-x="-9"
     inkscape:window-y="-9"
     inkscape:window-maximized="1"
     inkscape:current-layer="layer1"><inkscape:grid
       id="grid1"
       units="px"
       originx="0"
       originy="0"
       spacingx="0.26458333"
       spacingy="0.26458333"
       empcolor="#0099e5"
       empopacity="0.30196078"
       color="#0099e5"
       opacity="0.14901961"
       empspacing="5"
       enabled="true"
       visible="true" /></sodipodi:namedview><defs
     id="defs1" /><g
     id="layer1"><g
       id="g1"
       transform="matrix(1.9592267,0,0,1.9592267,-6.7925535,-7.7813155)"
       style="fill:#000000;stroke-width:0.870327"><path
         style="font-weight:600;font-size:61.4697px;line-height:0.85;font-family:Sans;-inkscape-font-specification:'Sans, Semi-Bold';letter-spacing:0px;word-spacing:0px;fill:#000000;stroke-width:0;stroke-linecap:round;stroke-linejoin:round;stroke-miterlimit:0;paint-order:markers fill stroke"
         d="m 16.31375,49.757685 -1.899594,7.452251 h -1.795218 l -1.012421,-3.913995 q -0.03131,-0.11481 -0.0835,-0.344431 -0.04175,-0.22962 -0.104374,-0.50099 -0.05218,-0.271375 -0.09394,-0.511432 -0.04175,-0.250498 -0.06262,-0.386179 -0.01044,0.135681 -0.06263,0.386179 -0.04175,0.240057 -0.09394,0.511432 -0.05219,0.260928 -0.104374,0.50099 -0.05219,0.229621 -0.0835,0.354867 L 9.915656,57.209936 H 8.120451 L 6.220857,49.757685 h 1.555162 l 0.949796,4.07056 q 0.06262,0.240056 0.135684,0.605365 0.07306,0.365308 0.135686,0.73061 0.06262,0.365309 0.09394,0.615801 0.03131,-0.260928 0.09394,-0.615801 0.06262,-0.365302 0.125249,-0.699297 0.07306,-0.344432 0.125248,-0.53231 l 1.085482,-4.174928 h 1.492537 l 1.085481,4.174928 q 0.05218,0.177437 0.114811,0.521868 0.07306,0.344437 0.135686,0.709739 0.06262,0.365309 0.09394,0.615801 0.03131,-0.260928 0.09394,-0.615801 0.06262,-0.365302 0.135686,-0.73061 0.0835,-0.365309 0.135685,-0.605365 l 0.949796,-4.07056 z m 7.567068,3.715693 q 0,1.158539 -0.386181,2.024838 -0.375744,0.855857 -1.158544,1.335976 -0.782798,0.480118 -2.003965,0.480118 -1.21073,0 -2.003966,-0.480118 -0.7828,-0.480119 -1.168981,-1.346412 -0.375744,-0.866298 -0.375744,-2.024844 0,-1.148103 0.375744,-2.003966 0.386181,-0.866299 1.168981,-1.335976 0.793236,-0.480119 2.014402,-0.480119 1.210731,0 1.993529,0.480119 0.793238,0.469677 1.168981,1.335976 0.375744,0.855863 0.375744,2.014408 z m -5.416972,0 q 0,1.168975 0.438368,1.836966 0.448805,0.657549 1.429914,0.657549 1.001982,0 1.429913,-0.657549 0.438368,-0.667991 0.438368,-1.836966 0,-1.168981 -0.438368,-1.836972 -0.427931,-0.667991 -1.419477,-0.667991 -0.991545,0 -1.44035,0.667991 -0.438368,0.667991 -0.438368,1.836972 z m 9.174412,-3.715693 q 2.912014,0 2.912014,2.170968 0,0.761924 -0.386181,1.242042 -0.386181,0.480113 -0.960233,0.751483 l 2.118777,3.287758 h -1.826533 l -1.659534,-2.859824 h -0.887173 v 2.859824 h -1.59691 v -7.452251 z m -0.03131,1.242043 h -0.657551 v 2.118777 h 0.657551 q 0.636679,0 0.98111,-0.260934 0.344432,-0.260933 0.344432,-0.855857 0,-0.500996 -0.323557,-0.751488 -0.313121,-0.250498 -1.001985,-0.250498 z m 10.635636,6.210208 h -1.795219 l -1.95178,-3.141635 -0.667988,0.480119 v 2.661516 h -1.57604 v -7.452251 h 1.576037 v 3.41301 q 0.156559,-0.219185 0.313119,-0.43837 0.156559,-0.219185 0.31312,-0.43837 l 2.014403,-2.53627 h 1.753471 l -2.598893,3.298194 z m 5.333467,-2.066587 q 0,0.991545 -0.720176,1.586468 -0.709737,0.584493 -2.02484,0.584493 -1.179419,0 -2.10834,-0.448805 v -1.471664 q 0.532303,0.229621 1.09592,0.427935 0.574052,0.187866 1.137667,0.187866 0.584491,0 0.824549,-0.219179 0.250496,-0.229621 0.250496,-0.574052 0,-0.281811 -0.198309,-0.480119 -0.187873,-0.198308 -0.51143,-0.365308 -0.323556,-0.177431 -0.74105,-0.375745 -0.260932,-0.125246 -0.563615,-0.29224 -0.302682,-0.177437 -0.584489,-0.427935 -0.271372,-0.260934 -0.448806,-0.626236 -0.177435,-0.365308 -0.177435,-0.876734 0,-1.001987 0.678428,-1.555167 0.678425,-0.56361 1.847405,-0.56361 0.584491,0 1.106357,0.135681 0.532302,0.135688 1.106356,0.38618 l -0.51143,1.231607 q -0.511428,-0.208749 -0.918484,-0.32356 -0.407056,-0.11481 -0.834986,-0.11481 -0.448804,0 -0.688863,0.208749 -0.240059,0.208744 -0.240059,0.542739 0,0.396622 0.35487,0.626243 0.354869,0.22962 1.05417,0.56361 0.574051,0.271375 0.97067,0.563622 0.407056,0.292241 0.626239,0.688862 0.219185,0.396616 0.219185,0.981109 z"
         id="text8"
         aria-label="WORKS" /><path
         style="font-weight:900;font-size:150.929px;line-height:0.75;font-family:Figtree;-inkscape-font-specification:'Figtree, Heavy';letter-spacing:0px;word-spacing:0px;fill:#000000;stroke-width:0;stroke-linecap:round;stroke-linejoin:round;stroke-miterlimit:0;paint-order:markers fill stroke"
         d="M 6.869451,43.664685 V 25.725659 h 5.996761 q 2.947124,0 5.202316,1.153224 2.280819,1.153222 3.562177,3.177771 1.281359,1.998919 1.281359,4.638518 0,2.613972 -1.281359,4.638519 -1.281358,2.024547 -3.562177,3.177772 -2.255192,1.153222 -5.202316,1.153222 z m 4.741028,-4.484757 h 1.255733 q 1.127594,0 2.0758,-0.333153 0.948207,-0.333152 1.64014,-0.922578 0.691933,-0.589425 1.076342,-1.409495 0.384406,-0.820069 0.384406,-1.81953 0,-0.99946 -0.384406,-1.819528 -0.384409,-0.820071 -1.076342,-1.409496 -0.691933,-0.589426 -1.64014,-0.922578 -0.948206,-0.333154 -2.0758,-0.333154 h -1.255733 z m 19.579176,4.792285 q -2.075802,0 -3.690314,-0.845699 -1.614513,-0.845698 -2.537091,-2.3577 -0.896952,-1.512003 -0.896952,-3.510925 0,-1.998919 0.896952,-3.510922 0.896951,-1.512004 2.485836,-2.357701 1.588886,-0.845696 3.664687,-0.845696 1.973293,0 3.459668,0.871323 1.512005,0.845697 2.357701,2.588345 0.871325,1.742648 0.871325,4.407875 h -8.969513 q 0.128136,0.948206 0.691934,1.512004 0.589425,0.53817 1.537631,0.53817 0.845697,0 1.460748,-0.384408 0.64068,-0.410034 0.794443,-0.99946 l 4.049095,1.255732 q -0.46129,1.332614 -1.486377,2.152683 -0.99946,0.794441 -2.255192,1.153222 -1.230104,0.333157 -2.434581,0.333157 z m -2.332073,-8.38009 h 4.254111 q -0.128135,-0.71756 -0.461289,-1.127596 -0.333154,-0.410034 -0.768816,-0.563796 -0.435661,-0.179392 -0.896952,-0.179392 -0.461288,0 -0.89695,0.179392 -0.435662,0.153762 -0.768816,0.563796 -0.333153,0.410036 -0.461288,1.127596 z m 15.196913,8.38009 q -1.281359,0 -2.383326,-0.35878 -1.101969,-0.35878 -1.896412,-0.99946 -0.768815,-0.666309 -1.076342,-1.588887 l 3.664688,-1.435123 q 0.281899,0.691935 0.794442,0.896952 0.512544,0.17939 0.89695,0.17939 0.410037,0 0.666308,-0.17939 0.256272,-0.17939 0.256272,-0.512544 0,-0.358781 -0.358781,-0.589425 -0.35878,-0.256272 -1.101968,-0.435662 l -1.050714,-0.256272 q -1.717022,-0.435661 -2.588345,-1.512003 -0.871325,-1.076342 -0.871325,-2.511463 0,-1.973294 1.435123,-3.049636 1.460749,-1.07634 3.946584,-1.07634 1.512004,0 2.537091,0.384407 1.050714,0.358781 1.71702,1.025087 0.666309,0.666308 1.025089,1.537631 l -3.562179,1.35824 q -0.17939,-0.512543 -0.615051,-0.743187 -0.410037,-0.230645 -1.025087,-0.230645 -0.435662,0 -0.691934,0.205017 -0.230646,0.205017 -0.230646,0.486916 0,0.307527 0.358781,0.538171 0.384408,0.205017 1.153224,0.410035 l 1.050713,0.256272 q 1.178851,0.281899 2.050174,0.871324 0.871325,0.563798 1.358244,1.409494 0.486913,0.845697 0.486913,1.947667 0,1.255731 -0.74319,2.152684 -0.743183,0.871322 -2.075799,1.35824 -1.332614,0.46129 -3.126517,0.46129 z m 7.99566,-0.307528 v -12.81359 h 4.61289 v 12.81359 z m 2.306448,-14.043694 q -1.025089,0 -1.793907,-0.768816 -0.768812,-0.768815 -0.768812,-1.793902 0,-1.050714 0.768812,-1.793903 0.768818,-0.768815 1.793907,-0.768815 1.050712,0 1.793901,0.768815 0.768812,0.743189 0.768812,1.793903 0,1.025087 -0.768812,1.793902 -0.743189,0.768816 -1.793901,0.768816 z m 11.199102,19.527912 q -1.665768,0 -2.89587,-0.17939 -1.204479,-0.179396 -2.050178,-0.53817 -0.845699,-0.333158 -1.460749,-0.82007 l 1.819529,-3.664689 q 0.410038,0.205019 0.948209,0.46129 0.563799,0.281899 1.383863,0.486918 0.820076,0.205013 2.024549,0.205013 0.794441,0 1.409497,-0.307522 0.615051,-0.307529 0.948203,-0.92258 0.35878,-0.61505 0.35878,-1.53763 v -1.127598 q -0.589422,0.871327 -1.53763,1.35824 -0.922574,0.486919 -2.127053,0.486919 -1.81953,0 -3.126518,-0.691932 -1.28136,-0.717565 -1.973291,-2.024551 -0.691932,-1.332612 -0.691932,-3.17777 0,-2.075801 0.691932,-3.53655 0.691931,-1.486377 1.973291,-2.280818 1.306988,-0.794443 3.126518,-0.794443 1.204479,0 2.127053,0.563797 0.948208,0.538171 1.53763,1.588885 v -1.845157 h 4.612897 v 11.275959 q 0,2.127053 -0.82007,3.715941 -0.794447,1.588888 -2.383329,2.43458 -1.563259,0.871328 -3.895331,0.871328 z m 0.230642,-9.91772 q 0.64068,0 1.076347,-0.281899 0.461284,-0.307526 0.691931,-0.82007 0.256271,-0.512544 0.256271,-1.153222 0,-0.691935 -0.256271,-1.204478 -0.25627,-0.512544 -0.71756,-0.794443 -0.435667,-0.281899 -1.076341,-0.281899 -0.615057,0 -1.076346,0.281899 -0.46129,0.281899 -0.717561,0.794443 -0.25627,0.512543 -0.281899,1.204478 0.02562,0.640678 0.281899,1.153222 0.256271,0.512544 0.717561,0.82007 0.486918,0.281899 1.101969,0.281899 z m 9.174542,4.433502 v -12.81359 h 4.356617 l 0.17939,1.563258 q 0.61505,-0.896951 1.51201,-1.383867 0.89695,-0.486916 1.97329,-0.486916 1.56326,0 2.58834,0.640679 1.02509,0.615053 1.51201,1.896411 0.51254,1.281359 0.51254,3.254652 v 7.329373 h -4.61289 v -6.560558 q 0,-0.743188 -0.17939,-1.204477 -0.15377,-0.486916 -0.48692,-0.743188 -0.30753,-0.256272 -0.79444,-0.281899 -0.97383,-0.05125 -1.46075,0.435661 -0.48692,0.486917 -0.48692,1.537631 v 6.81683 z"
         id="path2" /><path
         style="font-weight:900;font-size:150.929px;line-height:0.75;font-family:Figtree;-inkscape-font-specification:'Figtree, Heavy';letter-spacing:0px;word-spacing:0px;fill:#000000;stroke-width:0;stroke-linecap:round;stroke-linejoin:round;stroke-miterlimit:0;paint-order:markers fill stroke"
         d="M 10.841663,22.585877 V 9.0034709 H 5.767482 v -4.356621 h 14.863763 v 4.356621 H 15.582692 V 22.585877 Z m 15.940123,0.307525 q -2.050175,0 -3.63906,-0.845696 -1.563258,-0.871324 -2.46021,-2.383328 -0.896951,-1.512003 -0.896951,-3.485296 0,-1.973293 0.871323,-3.485297 0.896952,-1.512003 2.46021,-2.357701 1.588886,-0.8713231 3.613433,-0.8713231 2.050174,0 3.613432,0.8713231 1.588884,0.845698 2.460208,2.357701 0.896953,1.512004 0.896953,3.485297 0,1.973293 -0.896953,3.485296 -0.871324,1.512004 -2.434581,2.383328 -1.563258,0.845696 -3.587804,0.845696 z m 0,-4.254111 q 0.640678,0 1.127594,-0.307527 0.486916,-0.333154 0.768815,-0.871323 0.281899,-0.563798 0.281899,-1.281359 0,-0.717562 -0.281899,-1.255733 -0.281899,-0.563797 -0.794442,-0.871323 -0.486917,-0.333154 -1.153222,-0.333154 -0.640681,0 -1.153224,0.333154 -0.486917,0.307526 -0.768816,0.871323 -0.281899,0.538171 -0.281899,1.255733 0,0.717561 0.281899,1.281359 0.281899,0.538169 0.794443,0.871323 0.512544,0.307527 1.178852,0.307527 z m 8.585108,3.946586 V 9.7722879 h 4.356621 l 0.179389,1.5632561 q 0.615053,-0.922577 1.512005,-1.3838661 0.896951,-0.486917 1.973293,-0.486917 1.588885,0 2.613972,0.6406791 1.025087,0.615053 1.512003,1.922039 0.615051,-1.255732 1.614514,-1.896411 1.025083,-0.6663071 2.280819,-0.6663071 2.3577,0 3.485293,1.4094941 1.127598,1.409496 1.127598,4.382248 v 7.329374 H 51.40951 v -6.560559 q 0,-0.743187 -0.17939,-1.204477 -0.153767,-0.486916 -0.486918,-0.743188 -0.307529,-0.256271 -0.794441,-0.281899 -0.973837,-0.05126 -1.46075,0.435662 -0.486917,0.486916 -0.486917,1.537631 v 6.81683 h -4.612892 v -6.560559 q 0,-0.743187 -0.17939,-1.204477 -0.153764,-0.486916 -0.486918,-0.743188 -0.307525,-0.256271 -0.794441,-0.281899 -0.973834,-0.05126 -1.460751,0.435662 -0.486916,0.486916 -0.486916,1.537631 v 6.81683 z m 29.189375,0.307525 q -2.050172,0 -3.63906,-0.845696 -1.563259,-0.871324 -2.460209,-2.383328 -0.896951,-1.512003 -0.896951,-3.485296 0,-1.973293 0.871322,-3.485297 0.89695,-1.512003 2.460209,-2.357701 1.588888,-0.8713231 3.613431,-0.8713231 2.050178,0 3.613437,0.8713231 1.588882,0.845698 2.460204,2.357701 0.896956,1.512004 0.896956,3.485297 0,1.973293 -0.896956,3.485296 -0.871322,1.512004 -2.434581,2.383328 -1.563253,0.845696 -3.587802,0.845696 z m 0,-4.254111 q 0.64068,0 1.127592,-0.307527 0.486919,-0.333154 0.768818,-0.871323 0.2819,-0.563798 0.2819,-1.281359 0,-0.717562 -0.2819,-1.255733 -0.281899,-0.563797 -0.794441,-0.871323 -0.486918,-0.333154 -1.153227,-0.333154 -0.640679,0 -1.153221,0.333154 -0.486918,0.307526 -0.768818,0.871323 -0.281894,0.538171 -0.281894,1.255733 0,0.717561 0.281894,1.281359 0.2819,0.538169 0.794447,0.871323 0.512541,0.307527 1.17885,0.307527 z"
         id="path1" /></g></g></svg>
